<svg xmlns="http://www.w3.org/2000/svg" viewBox="0 0 100 100">
  <path d="M 76.711 4.494 L 66.330 10.308 L 56.507 17.246 L 47.813 25.802 L 40.373 35.287 L 33.967 45.223 L 28.341 55.455 L 23.617 66.032 L 19.364 76.898 L 15.593 88.122 L 22.377 88.036 L 34.093 86.016 L 46.164 86.244 L 57.968 88.260 L 69.261 91.179 L 80.368 95.017 L 82.326 91.119 L 76.505 81.046 L 72.419 69.984 L 70.470 58.317 L 68.856 46.356 L 70.472 34.265 L 72.729 22.723 L 76.247 11.585 Z M 45.000 51.000 L 50.000 59.000 L 59.000 68.000 L 63.000 65.000 L 56.000 56.000 L 52.000 48.000 Z" fill="#0B1020" fill-rule="evenodd"/>
</svg>